HIERARCHY
ROOT joint_Root
{
	OFFSET 0.0 0.0 0.0
	CHANNELS 6 Xposition Yposition Zposition Zrotation Xrotation Yrotation 
	JOINT Hips
	{
		OFFSET -0.726466 93.3139 -2.00062
		CHANNELS 6 Xposition Yposition Zposition Zrotation Xrotation Yrotation 
		JOINT Spine
		{
			OFFSET 15.7357 0.0 0.0
			CHANNELS 6 Xposition Yposition Zposition Zrotation Xrotation Yrotation 
			JOINT Chest
			{
				OFFSET 8.98455 -0.406207 0.0
				CHANNELS 6 Xposition Yposition Zposition Zrotation Xrotation Yrotation 
				JOINT Neck
				{
					OFFSET 16.3773 0.0 0.0
					CHANNELS 6 Xposition Yposition Zposition Zrotation Xrotation Yrotation 
					JOINT Head
					{
						OFFSET 6.45672 0.0 0.0
						CHANNELS 6 Xposition Yposition Zposition Zrotation Xrotation Yrotation 
						End Site
						{
							OFFSET 0.0 0.0 0.0
						}
					}
				}
				JOINT Shoulder_L
				{
					OFFSET 12.9942 -0.242716 4.98039
					CHANNELS 6 Xposition Yposition Zposition Zrotation Xrotation Yrotation 
					JOINT UpperArm_L
					{
						OFFSET 5.34809 0.0 0.0
						CHANNELS 6 Xposition Yposition Zposition Zrotation Xrotation Yrotation 
						JOINT LowerArm_L
						{
							OFFSET 24.3286 1.87007e-05 0.0
							CHANNELS 6 Xposition Yposition Zposition Zrotation Xrotation Yrotation 
							JOINT Hand_L
							{
								OFFSET 22.2916 0.0 0.0
								CHANNELS 6 Xposition Yposition Zposition Zrotation Xrotation Yrotation 
								End Site
								{
									OFFSET 0.0 0.0 0.0
								}
							}
						}
					}
				}
				JOINT Shoulder_R
				{
					OFFSET 12.9945 -0.242716 -4.98039
					CHANNELS 6 Xposition Yposition Zposition Zrotation Xrotation Yrotation 
					JOINT UpperArm_R
					{
						OFFSET -5.34813 0.0 0.0
						CHANNELS 6 Xposition Yposition Zposition Zrotation Xrotation Yrotation 
						JOINT LowerArm_R
						{
							OFFSET -24.3289 0.000322201 0.0
							CHANNELS 6 Xposition Yposition Zposition Zrotation Xrotation Yrotation 
							JOINT Hand_R
							{
								OFFSET -22.2915 -0.000108084 0.0
								CHANNELS 6 Xposition Yposition Zposition Zrotation Xrotation Yrotation 
								End Site
								{
									OFFSET 0.0 0.0 0.0
								}
							}
						}
					}
				}
			}
		}
		JOINT UpperLeg_L
		{
			OFFSET -2.19248 -6.46944 0.0
			CHANNELS 6 Xposition Yposition Zposition Zrotation Xrotation Yrotation 
			JOINT LowerLeg_L
			{
				OFFSET 39.0811 0.0 -1.23785e-05
				CHANNELS 6 Xposition Yposition Zposition Zrotation Xrotation Yrotation 
				JOINT Foot_L
				{
					OFFSET 40.9854 0.0 -1.26872e-05
					CHANNELS 6 Xposition Yposition Zposition Zrotation Xrotation Yrotation 
					JOINT Toes_L
					{
						OFFSET 11.7543 0.0 0.0
						CHANNELS 6 Xposition Yposition Zposition Zrotation Xrotation Yrotation 
						End Site
						{
							OFFSET 0.0 0.0 0.0
						}
					}
				}
			}
		}
		JOINT UpperLeg_R
		{
			OFFSET -2.19251 6.46944 0.0
			CHANNELS 6 Xposition Yposition Zposition Zrotation Xrotation Yrotation 
			JOINT LowerLeg_R
			{
				OFFSET -39.0811 -0.00228153 -0.0401928
				CHANNELS 6 Xposition Yposition Zposition Zrotation Xrotation Yrotation 
				JOINT Foot_R
				{
					OFFSET -40.9854 0.0 0.0
					CHANNELS 6 Xposition Yposition Zposition Zrotation Xrotation Yrotation 
					JOINT Toes_R
					{
						OFFSET -11.7543 0.0 0.0
						CHANNELS 6 Xposition Yposition Zposition Zrotation Xrotation Yrotation 
						End Site
						{
							OFFSET 0.0 0.0 0.0
						}
					}
				}
			}
		}
	}
}
MOTION
Frames:	4
Frame Time:	0.0333333
0.000000 0.000000 0.000000 0.000000 0.000000 -0.000000 -2.611740 92.385100 -1.273830 88.893800 0.793093 4.196370 15.735700 0.000005 -0.000001 73.620600 85.716600 -71.332500 8.984550 -0.406207 -0.000000 0.509340 -2.559880 4.584880 16.377300 -0.000001 -0.000001 2.515490 -0.716516 -3.678250 6.456720 -0.000001 -0.000000 3.403380 -0.639187 -2.367360 12.994200 -0.242716 4.980390 -86.437600 -8.747290 -67.737300 5.348090 -0.000007 -0.000001 -87.316500 -33.775900 -104.349000 24.328600 0.000019 0.000005 7.934420 2.135490 -75.031600 22.291600 -0.000001 0.000005 19.970600 5.550420 -8.726060 12.994500 -0.242716 -4.980390 88.503200 4.870520 -72.893600 -5.348130 -0.000001 -0.000004 -63.458800 38.576000 -15.937100 -24.328900 0.000322 -0.000009 2.246800 8.463890 -14.932400 -22.291500 -0.000108 -0.000004 9.884000 5.392280 -2.688250 -2.192480 -6.469440 -0.000000 -174.694000 -8.144370 -2.562360 39.081100 -0.000007 -0.000012 -0.116077 0.293612 21.571100 40.985400 -0.000006 -0.000013 -1.201820 5.938710 -64.834000 11.754300 -0.000000 0.000003 -0.000039 -0.000450 -16.595100 -2.192510 6.469440 -0.000001 -179.533000 15.039100 179.752000 -39.081100 -0.002282 -0.040193 -0.057190 0.171697 19.414300 -40.985400 0.000008 0.000006 4.292790 7.364530 -65.746100 -11.754300 -0.000006 -0.000006 -0.009261 -0.098031 -20.566400
0.000000 0.000000 0.000000 0.000000 0.000000 -0.000000 -2.632580 92.387000 -1.327750 88.895100 0.732536 4.236850 15.735700 0.000005 -0.000001 73.907400 85.677800 -71.640900 8.984550 -0.406207 -0.000000 0.594846 -2.537110 4.543420 16.377300 -0.000001 -0.000001 2.587620 -0.746459 -3.705810 6.456720 -0.000001 -0.000000 3.540020 -0.693920 -2.396800 12.994200 -0.242716 4.980390 -86.419000 -8.756370 -67.652800 5.348090 -0.000007 -0.000001 -87.493800 -33.932100 -104.547000 24.328600 0.000019 0.000005 7.894550 2.101860 -75.184800 22.291600 -0.000001 0.000005 19.836700 5.548890 -8.653650 12.994500 -0.242716 -4.980390 88.503100 4.868680 -72.886200 -5.348130 -0.000001 -0.000004 -63.334100 38.604200 -16.222000 -24.328900 0.000322 -0.000009 2.267670 8.423260 -15.133700 -22.291500 -0.000108 -0.000004 9.764490 5.391090 -2.650060 -2.192480 -6.469440 -0.000000 -174.686000 -8.125870 -2.563640 39.081100 -0.000007 -0.000012 -0.115832 0.292882 21.578500 40.985400 -0.000006 -0.000013 -1.227190 5.874960 -64.795600 11.754300 -0.000000 0.000003 -0.000042 -0.000488 -16.596500 -2.192510 6.469440 -0.000001 -179.514000 15.013000 179.733000 -39.081100 -0.002282 -0.040193 -0.057779 0.173200 19.431900 -40.985400 0.000008 0.000006 4.262620 7.371250 -65.700100 -11.754300 -0.000006 -0.000006 -0.008845 -0.094795 -20.434100
0.000000 0.000000 0.000000 0.000000 0.000000 -0.000000 -2.643660 92.383800 -1.381920 88.892400 0.659457 4.271660 15.735700 0.000005 -0.000001 74.021900 85.641400 -71.767900 8.984550 -0.406207 -0.000000 0.669385 -2.538290 4.520010 16.377300 -0.000001 -0.000001 2.721720 -0.711552 -3.765210 6.456720 -0.000001 -0.000000 3.621490 -0.677754 -2.466830 12.994200 -0.242716 4.980390 -86.418100 -8.718220 -67.560500 5.348090 -0.000007 -0.000001 -87.496900 -34.206900 -104.342000 24.328600 0.000019 0.000005 7.900140 2.037410 -75.629700 22.291600 -0.000001 0.000005 19.679500 5.546620 -8.547930 12.994500 -0.242716 -4.980390 88.503100 4.874690 -72.906400 -5.348130 -0.000001 -0.000004 -63.223900 38.694300 -16.442800 -24.328900 0.000322 -0.000009 2.272270 8.357060 -15.276800 -22.291500 -0.000108 -0.000004 9.817910 5.392950 -2.709690 -2.192480 -6.469440 -0.000000 -174.676000 -8.184230 -2.577730 39.081100 -0.000007 -0.000012 -0.115654 0.291715 21.626500 40.985400 -0.000006 -0.000013 -1.234750 5.837450 -64.787400 11.754300 -0.000000 0.000003 -0.000037 -0.000438 -16.594600 -2.192510 6.469440 -0.000001 -179.507000 14.934500 179.700000 -39.081100 -0.002282 -0.040193 -0.058835 0.175651 19.487300 -40.985400 0.000008 0.000006 4.242280 7.399900 -65.684600 -11.754300 -0.000006 -0.000006 -0.008798 -0.094422 -20.418900
0.000000 0.000000 0.000000 0.000000 0.000000 -0.000000 -2.648890 92.389500 -1.415560 88.904200 0.596008 4.302200 15.735700 0.000005 -0.000001 74.391000 85.608300 -72.159900 8.984550 -0.406207 -0.000000 0.747103 -2.499110 4.475560 16.377300 -0.000001 -0.000001 2.810900 -0.663625 -3.816490 6.456720 -0.000001 -0.000000 3.732670 -0.632922 -2.480360 12.994200 -0.242716 4.980390 -86.434800 -8.664870 -67.531900 5.348090 -0.000007 -0.000001 -87.100000 -34.703700 -103.369000 24.328600 0.000019 0.000005 7.621150 1.830270 -76.575300 22.291600 -0.000001 0.000005 19.791400 5.546490 -8.541640 12.994500 -0.242716 -4.980390 88.478600 4.937650 -72.851200 -5.348130 -0.000001 -0.000004 -63.131000 38.830300 -16.591500 -24.328900 0.000322 -0.000009 2.278730 8.306560 -15.406300 -22.291500 -0.000108 -0.000004 9.804050 5.394200 -2.749890 -2.192480 -6.469440 -0.000000 -174.674000 -8.231510 -2.533110 39.081100 -0.000007 -0.000012 -0.116062 0.293450 21.579300 40.985400 -0.000006 -0.000013 -1.240790 5.848220 -64.748600 11.754300 -0.000000 0.000003 -0.000038 -0.000446 -16.594900 -2.192510 6.469440 -0.000001 -179.509000 14.890800 179.697000 -39.081100 -0.002282 -0.040193 -0.057833 0.172807 19.488500 -40.985400 0.000008 0.000006 4.278080 7.399450 -65.658000 -11.754300 -0.000006 -0.000006 -0.008855 -0.094870 -20.437200
